# xmcd
#
# Track frame offsets:
# 150
# 16408
# 28992
# 44930
# 60601
# 76901
# 90675
# 105457
# 119720
# 132246
# 145385
# 158483
#
# Disc length: 2277 seconds
#
#
# Revision: 0
# Processed by: cddbd v1.5.1PL2 Copyright (c) Steve Scherf et al.
# Submitted via: FreeRIP 2.945 
#
DISCID=a608e30c
DTITLE=Various Artist - Country Favorites - Disc 1
DYEAR=2005
DGENRE=Country
TTITLE0=Exile - She's a Miracle
TTITLE1=Holly Dunn - You Really Had Me Going
TTITLE2=T.G. Sheppard - Strong Heart
TTITLE3=B.J. Thomas - Another Somebody Done Somebody Wrong Song
TTITLE4=Janie Fricke - It Ain't Easy Being Easy
TTITLE5=Moe Bandy - I Cheated Me Right Out of You
TTITLE6=Jeanne Pruette - Satin Sheets
TTITLE7=T. Graham Brown - Hell and High Water
TTITLE8=Freddy Fender (Live) - Wasted Days and Wasted Nights
TTITLE9=Lynn Anderson - Rose Garden
TTITLE10=Jack Greene - Statue of a Fool
TTITLE11=Johnny Paycheck - Take This Job and Shove It
EXTD=
EXTT0=
EXTT1=
EXTT2=
EXTT3=
EXTT4=
EXTT5=
EXTT6=
EXTT7=
EXTT8=
EXTT9=
EXTT10=
EXTT11=
PLAYORDER=
